<svg width="174" height="89" viewBox="0 0 174 89" fill="none" xmlns="http://www.w3.org/2000/svg">
<path d="M170.964 88.133C171.029 88.12 171.093 88.1024 171.157 88.0857C171.212 88.0717 171.267 88.0601 171.321 88.0435C171.384 88.0244 171.446 88.0007 171.507 87.9786C171.561 87.959 171.616 87.9414 171.67 87.9187C171.728 87.8946 171.784 87.8664 171.84 87.8397C171.895 87.8136 171.951 87.7894 172.005 87.7602C172.058 87.7315 172.109 87.6988 172.162 87.6676C172.215 87.6355 172.27 87.6053 172.322 87.57C172.378 87.5328 172.43 87.4916 172.484 87.4513C172.529 87.4176 172.575 87.3859 172.619 87.3497C172.701 87.2828 172.778 87.2113 172.854 87.1378C172.867 87.1248 172.882 87.1137 172.896 87.1001C172.91 87.086 172.922 87.0704 172.935 87.0558C173.008 86.9814 173.078 86.9049 173.145 86.8244C173.183 86.7771 173.217 86.7278 173.253 86.679C173.291 86.6287 173.33 86.5799 173.365 86.5276C173.402 86.4717 173.434 86.4139 173.469 86.3565C173.497 86.3082 173.528 86.2609 173.555 86.2111C173.586 86.1532 173.612 86.0934 173.64 86.0345C173.664 85.9822 173.691 85.9303 173.713 85.8765C173.737 85.8186 173.756 85.7598 173.778 85.7009C173.798 85.6436 173.82 85.5867 173.838 85.5283C173.856 85.469 173.869 85.4086 173.884 85.3482C173.899 85.2888 173.916 85.2305 173.928 85.1706C173.942 85.0997 173.95 85.0282 173.96 84.9568C173.967 84.9065 173.977 84.8567 173.982 84.8058C173.994 84.6806 174.001 84.5553 174.001 84.4295V3.77349C174.001 1.68901 172.312 0 170.228 0H51.3627C51.3295 0 51.2973 0.00402229 51.2641 0.00502855C51.1921 0.00704108 51.1207 0.0100615 51.0492 0.016099C50.9924 0.0206272 50.936 0.0271692 50.8797 0.0347162C50.8153 0.0427663 50.7514 0.0523251 50.6875 0.0638972C50.6276 0.0744629 50.5682 0.0870402 50.5094 0.100625C50.4495 0.114712 50.3896 0.129808 50.3303 0.146914C50.2714 0.163518 50.2135 0.181628 50.1562 0.200747C50.0973 0.220872 50.0384 0.242006 49.9806 0.265151C49.9257 0.286785 49.8719 0.30892 49.8186 0.333071C49.7592 0.359737 49.7003 0.388418 49.642 0.418103C49.5922 0.443763 49.5434 0.469924 49.4951 0.497596C49.4367 0.530803 49.3793 0.566022 49.3225 0.602248C49.2757 0.632436 49.2299 0.663629 49.1846 0.695326C49.1313 0.733061 49.0785 0.772305 49.0266 0.813562C48.9794 0.851297 48.9331 0.89004 48.8873 0.929787C48.842 0.969534 48.7972 1.00928 48.7534 1.05154C48.7036 1.09934 48.6558 1.14915 48.6085 1.19946C48.5849 1.22462 48.5597 1.24676 48.5371 1.27242C48.5235 1.28751 48.5129 1.30412 48.4999 1.31921C48.4526 1.37405 48.4083 1.43141 48.364 1.48927C48.3318 1.53153 48.2986 1.57379 48.2684 1.61706C48.2292 1.67341 48.193 1.73128 48.1567 1.78964C48.127 1.83744 48.0964 1.88473 48.0692 1.93353C48.0375 1.98988 48.0098 2.04774 47.9811 2.1056C47.955 2.15843 47.9278 2.21126 47.9042 2.2651C47.8795 2.32195 47.8579 2.38082 47.8362 2.43868C47.8146 2.49553 47.7925 2.55188 47.7739 2.60924C47.7552 2.6671 47.7401 2.72596 47.724 2.78483C47.7079 2.84521 47.6908 2.90508 47.6772 2.96596C47.6647 3.02281 47.6561 3.08067 47.6461 3.13803C47.635 3.20344 47.6239 3.26885 47.6159 3.33425C47.6093 3.38859 47.6063 3.44393 47.6023 3.49928C47.5972 3.56972 47.5927 3.64016 47.5917 3.7111C47.5912 3.73173 47.5887 3.75185 47.5887 3.77248V27.0433C47.5887 29.1278 49.2777 30.8168 51.3622 30.8168C53.4467 30.8168 55.1357 29.1278 55.1357 27.0433V12.1531L88.685 41.8565C88.5099 41.9798 88.3413 42.1161 88.1844 42.2726L55.1352 75.3218V50.5235C55.1352 48.439 53.4462 46.75 51.3617 46.75C49.2772 46.75 47.5882 48.439 47.5882 50.5235V55.1342H28.0918C26.0074 55.1342 24.3184 56.8232 24.3184 58.9076C24.3184 60.9921 26.0074 62.6811 28.0918 62.6811H47.5882V84.432C47.5882 86.5165 49.2772 88.2055 51.3617 88.2055H170.227C170.351 88.2055 170.475 88.199 170.599 88.1869C170.657 88.1814 170.713 88.1703 170.769 88.1622C170.835 88.1532 170.899 88.1456 170.964 88.133ZM166.454 75.3223L133.404 42.2731C133.383 42.252 133.36 42.2344 133.338 42.2142L158.185 21.1345C159.773 19.7861 159.969 17.4053 158.62 15.8159C157.273 14.2276 154.892 14.0313 153.302 15.3802L110.847 51.3994L61.3166 7.54748H166.454V75.3223ZM93.5216 47.6103C93.7908 47.3412 94.0091 47.0413 94.1797 46.7223L108.293 59.2176C109.006 59.849 109.9 60.166 110.795 60.166C111.663 60.166 112.531 59.8676 113.236 59.2699L127.619 47.067C127.75 47.2581 127.898 47.4408 128.067 47.6103L161.116 80.6595H60.4724L93.5216 47.6103Z" fill="currentColor"/>
<path d="M3.77349 42.9757H67.5036C69.5881 42.9757 71.2771 41.2867 71.2771 39.2022C71.2771 37.1177 69.5881 35.4287 67.5036 35.4287H3.77349C1.68901 35.4287 0 37.1177 0 39.2022C0 41.2867 1.68901 42.9757 3.77349 42.9757Z" fill="currentColor"/>
<path d="M10.377 22.1808H38.9926C41.0771 22.1808 42.7661 20.4917 42.7661 18.4073C42.7661 16.3228 41.0771 14.6338 38.9926 14.6338H10.377C8.29253 14.6338 6.60352 16.3228 6.60352 18.4073C6.60352 20.4917 8.29253 22.1808 10.377 22.1808Z" fill="currentColor"/>
<path d="M31.4457 71.0674H3.77349C1.68901 71.0674 0 72.7564 0 74.8409C0 76.9253 1.68901 78.6144 3.77349 78.6144H31.4457C33.5302 78.6144 35.2192 76.9253 35.2192 74.8409C35.2192 72.7564 33.5302 71.0674 31.4457 71.0674Z" fill="currentColor"/>
</svg>
